<?xml version="1.0" encoding="utf-8"?>
<!-- Generator: Adobe Illustrator 16.0.0, SVG Export Plug-In . SVG Version: 6.00 Build 0)  -->
<!DOCTYPE svg PUBLIC "-//W3C//DTD SVG 1.1//EN" "http://www.w3.org/Graphics/SVG/1.1/DTD/svg11.dtd">
<svg version="1.1" id="Capa_1" xmlns="http://www.w3.org/2000/svg" xmlns:xlink="http://www.w3.org/1999/xlink" x="0px" y="0px"
	 width="595.281px" height="147.42px" viewBox="0 347.776 595.281 147.42" enable-background="new 0 347.776 595.281 147.42"
	 xml:space="preserve">
<rect y="347.776" fill="#FF9933" width="595.281" height="147.42"/>
<g>
	<g>
		<path fill="#FFFFFF" d="M32.629,466.498c8.255,7.47,63.882-25.65,72.137-39.606c3.931-6.684-0.688-16.512-8.354-24.374
			c8.648-5.798,16.314,12.187,23.587,8.354c3.341-1.77,5.405-7.175,3.833-10.517c-2.85-5.896-12.383-5.896-18.771-6.683
			c4.521-1.081,15.43-5.799,15.725-12.384c0.197-5.012-6.191-10.811-11.204-10.221c-6.683,0.786-9.042,10.319-11.302,16.511
			c-0.295-3.931-1.081-12.481-5.405-16.216c-5.7-5.013-12.58-0.295-12.776,5.799c-0.197,7.272,15.43,11.4,10.516,20.146
			c-8.354-6.388-18.182-9.926-24.472-6.289c-2.653,1.67-5.798,5.012-8.943,9.238c4.914,5.11,11.597,11.4,17.002,14.938
			c1.081,0.786,1.474,2.26,0.59,3.439c-0.787,1.18-2.261,1.475-3.44,0.688c-5.503-3.636-12.187-9.729-17.101-14.84
			c-2.457,3.637-5.012,7.862-7.371,12.285c4.619,4.718,10.614,10.024,15.332,13.268c1.081,0.786,1.376,2.261,0.59,3.44
			c-0.786,1.179-2.26,1.474-3.44,0.688c-4.619-3.145-10.221-8.157-14.84-12.776C34.791,440.454,27.617,462.075,32.629,466.498z"/>
	</g>
	<g enable-background="new    ">
		<path fill="#FFFFFF" d="M153.098,409.233v-0.575c0-13.541,8.431-22.739,20.248-22.739c6.643,0,10.922,2.427,14.372,5.94
			l-5.557,7.154c-2.683-2.747-5.493-4.471-9.134-4.471c-6.004,0-10.411,5.557-10.411,14.244v0.191
			c0,8.878,4.599,14.308,10.539,14.308c3.577,0,6.196-1.66,9.198-4.663l5.557,6.579c-4.024,4.152-8.303,6.707-15.138,6.707
			C161.018,431.908,153.098,422.902,153.098,409.233z"/>
		<path fill="#FFFFFF" d="M206.876,386.302h8.814l16.032,44.967h-9.581l-3.321-9.709h-15.394l-3.258,9.709h-9.325L206.876,386.302z
			 M216.01,413.385l-4.854-14.563l-4.918,14.563H216.01z"/>
		<path fill="#FFFFFF" d="M237.278,386.558h16.799c5.173,0,9.325,1.469,12.136,4.28c2.427,2.427,3.769,5.94,3.769,10.347v0.256
			c0,6.771-3.385,11.05-8.304,13.222l9.517,16.607h-10.603l-8.239-14.691h-5.813v14.691h-9.262V386.558z M253.375,408.403
			c4.727,0,7.281-2.683,7.281-6.707v-0.064c0-4.471-2.747-6.707-7.473-6.707h-6.643v13.477H253.375z"/>
		<path fill="#FFFFFF" d="M277.325,386.558h16.799c5.173,0,9.325,1.469,12.135,4.28c2.427,2.427,3.769,5.94,3.769,10.347v0.256
			c0,6.771-3.386,11.05-8.304,13.222l9.518,16.607h-10.604l-8.239-14.691h-5.813v14.691h-9.262V386.558z M293.421,408.403
			c4.726,0,7.281-2.683,7.281-6.707v-0.064c0-4.471-2.747-6.707-7.473-6.707h-6.643v13.477H293.421z"/>
		<path fill="#FFFFFF" d="M315.774,409.361v-0.766c0-13.414,8.432-22.803,20.248-22.803c11.881,0,20.184,9.325,20.184,22.675v0.767
			c0,13.35-8.431,22.803-20.247,22.803C324.078,432.036,315.774,422.711,315.774,409.361z M346.625,409.169v-0.447
			c0-8.814-4.472-14.372-10.667-14.372c-6.26,0-10.667,5.493-10.667,14.308v0.447c0,8.814,4.535,14.371,10.73,14.371
			S346.625,417.984,346.625,409.169z"/>
		<path fill="#FFFFFF" d="M370.384,395.117h-11.242v-8.559h31.682v8.559h-11.242v36.152h-9.197V395.117z"/>
	</g>
	<g enable-background="new    ">
		<path fill="#211915" d="M152.905,463.39v2.277h-0.979V450.3h0.979v6.747c0.788-1.384,1.958-2.575,3.81-2.575
			c2.235,0,4.449,2.001,4.449,5.619v0.149c0,3.618-2.214,5.662-4.449,5.662C154.842,465.902,153.65,464.731,152.905,463.39z
			 M160.121,460.282v-0.148c0-2.98-1.618-4.726-3.512-4.726c-1.916,0-3.768,1.83-3.768,4.683v0.191c0,2.874,1.852,4.684,3.768,4.684
			C158.546,464.966,160.121,463.305,160.121,460.282z"/>
		<path fill="#211915" d="M170.724,454.706h1.064l-3.98,11.175c-0.809,2.277-1.788,3.044-3.193,3.044
			c-0.617,0-1.192-0.128-1.809-0.447l0.34-0.894c0.426,0.255,0.894,0.404,1.511,0.404c0.958,0,1.575-0.575,2.256-2.32l-4.385-10.962
			h1.107l3.768,9.706L170.724,454.706z"/>
	</g>
	<g enable-background="new    ">
		<path fill="#211915" d="M179.771,450.284h4.075v2.066c0.918-1.292,2.067-2.354,3.99-2.354c1.779,0,3.071,0.86,3.789,2.238
			c1.12-1.349,2.497-2.238,4.363-2.238c2.727,0,4.563,1.779,4.563,5.166v10.505h-4.047v-9.271c0-1.779-0.775-2.727-2.124-2.727
			s-2.181,0.947-2.181,2.727v9.271h-4.076v-9.271c0-1.779-0.746-2.727-2.095-2.727s-2.182,0.947-2.182,2.727v9.271h-4.075V450.284z"
			/>
		<path fill="#211915" d="M203.128,458.148v-0.259c0-4.563,2.842-7.893,6.716-7.893c4.392,0,6.544,3.588,6.544,8.18
			c0,0.229,0,0.718-0.028,1.32h-9.185c0.344,2.038,1.607,3.1,3.329,3.1c1.263,0,2.239-0.574,3.215-1.521l2.095,2.468
			c-1.407,1.55-3.186,2.469-5.482,2.469C206.257,466.012,203.128,462.941,203.128,458.148z M205.023,445.519l3.416-1.579
			l2.985,4.822h-2.928L205.023,445.519z M212.457,456.799c-0.172-2.124-1.09-3.444-2.612-3.444c-1.492,0-2.468,1.264-2.698,3.444
			H212.457z"/>
		<path fill="#211915" d="M219.055,450.284h4.075v2.066c0.89-1.234,2.009-2.354,3.961-2.354c2.87,0,4.535,2.009,4.535,5.194v10.477
			h-4.076v-9.271c0-1.809-0.804-2.727-2.182-2.727c-1.349,0-2.239,0.918-2.239,2.727v9.271h-4.075V450.284z"/>
		<path fill="#211915" d="M233.603,463.831l1.78-2.87c1.377,1.062,2.841,1.722,4.104,1.722c1.148,0,1.636-0.545,1.636-1.177v-0.057
			c0-0.891-1.148-1.264-2.813-1.98c-2.182-0.947-4.047-2.038-4.047-4.65v-0.057c0-2.957,2.296-4.707,5.281-4.707
			c1.665,0,3.53,0.573,5.08,1.664l-1.636,2.928c-1.148-0.746-2.411-1.32-3.501-1.32c-0.976,0-1.493,0.488-1.493,1.091v0.058
			c0,0.804,1.148,1.263,2.784,2.009c2.239,1.062,4.076,2.182,4.076,4.621v0.058c0,3.186-2.354,4.793-5.425,4.793
			C237.621,465.955,235.468,465.352,233.603,463.831z"/>
		<path fill="#211915" d="M247.261,460.76v-10.476h4.047v9.271c0,1.808,0.804,2.727,2.182,2.727c1.377,0,2.239-0.919,2.239-2.727
			v-9.271h4.076v15.384h-4.076v-2.066c-0.861,1.234-2.009,2.354-3.932,2.354C248.897,465.955,247.261,463.946,247.261,460.76z"/>
		<path fill="#211915" d="M263.216,444.945h4.076v20.723h-4.076V444.945z"/>
		<path fill="#211915" d="M269.931,461.276v-0.172c0-3.387,2.21-4.908,5.367-4.908c1.292,0,2.267,0.259,3.214,0.632v-0.46
			c0-1.779-1.062-2.697-2.899-2.697c-1.435,0-2.583,0.459-3.53,0.86l-1.119-3.186c1.492-0.746,3.042-1.234,5.252-1.234
			c2.095,0,3.674,0.574,4.678,1.579c1.062,1.062,1.579,2.669,1.579,4.649v9.328h-3.99v-1.665c-0.918,1.206-2.181,1.952-3.989,1.952
			C271.968,465.955,269.931,464.261,269.931,461.276z M278.57,460.616v-1.291c-0.603-0.287-1.435-0.488-2.268-0.488
			c-1.493,0-2.439,0.746-2.439,2.152v0.058c0,1.263,0.804,1.895,1.98,1.923C277.422,462.999,278.57,462.022,278.57,460.616z"/>
	</g>
	<g enable-background="new    ">
		<path fill="#211915" d="M284.872,463.831l0.833-1.033c1.406,1.234,2.899,1.865,4.478,1.865c1.808,0,3.214-1.091,3.214-2.755
			v-0.058c0-1.464-1.263-2.238-3.444-3.157c-2.44-1.005-4.334-1.923-4.334-4.162v-0.057c0-2.268,1.837-3.847,4.42-3.847
			c1.722,0,3.387,0.689,4.563,1.607l-0.775,1.063c-1.148-0.861-2.468-1.407-3.846-1.407c-1.779,0-3.014,1.034-3.014,2.44v0.057
			c0,1.436,1.378,2.124,3.53,3.043c2.555,1.119,4.248,2.095,4.248,4.334v0.028c0,2.497-2.066,4.134-4.65,4.134
			C288.258,465.927,286.335,465.151,284.872,463.831z"/>
		<path fill="#211915" d="M298.875,462.339v-10.218h-1.894v-1.234h1.894v-4.535h1.349v4.535h4.22v1.234h-4.22v10.045
			c0,1.837,1.005,2.44,2.469,2.44c0.573,0,1.119-0.115,1.751-0.374v1.234c-0.604,0.287-1.234,0.402-1.952,0.402
			C300.454,465.869,298.875,464.806,298.875,462.339z"/>
		<path fill="#211915" d="M307.799,460.444v-9.558h1.32v9.185c0,2.984,1.436,4.679,3.933,4.679c2.439,0,4.334-1.98,4.334-4.822
			v-9.041h1.349v14.781h-1.349v-2.555c-0.804,1.55-2.239,2.87-4.564,2.87C309.722,465.983,307.799,463.831,307.799,460.444z"/>
		<path fill="#211915" d="M322.519,458.406v-0.229c0-4.851,2.957-7.605,5.999-7.605c2.497,0,4.104,1.578,5.108,3.387v-9.013h1.35
			v20.723h-1.35v-3.157c-1.033,1.865-2.64,3.473-5.108,3.473C325.476,465.983,322.519,463.286,322.519,458.406z M333.713,458.406
			v-0.287c0-3.846-2.469-6.285-5.052-6.285c-2.641,0-4.736,2.238-4.736,6.314v0.2c0,4.019,2.182,6.372,4.736,6.372
			C331.245,464.72,333.713,462.253,333.713,458.406z"/>
		<path fill="#211915" d="M339.593,445.318h1.607v1.952h-1.607V445.318z M339.708,450.886h1.349v14.781h-1.349V450.886z"/>
		<path fill="#211915" d="M344.959,458.348v-0.114c0-4.276,2.727-7.663,6.429-7.663c3.731,0,6.43,3.329,6.43,7.634v0.115
			c0,4.276-2.728,7.663-6.458,7.663C347.657,465.983,344.959,462.654,344.959,458.348z M356.411,458.348v-0.114
			c0-3.674-2.267-6.4-5.051-6.4c-2.842,0-4.994,2.755-4.994,6.371v0.115c0,3.674,2.238,6.4,5.022,6.4
			C354.258,464.72,356.411,461.966,356.411,458.348z"/>
	</g>
</g>
</svg>
