<?xml version="1.0" encoding="utf-8"?>
<!-- Generator: Adobe Illustrator 20.1.0, SVG Export Plug-In . SVG Version: 6.00 Build 0)  -->
<svg version="1.1" xmlns="http://www.w3.org/2000/svg" xmlns:xlink="http://www.w3.org/1999/xlink" x="0px" y="0px"
	 viewBox="87.667 -39.5 96 96" enable-background="new 87.667 -39.5 96 96" xml:space="preserve">
<g id="Capa_1">
	<rect x="87.667" y="-39.5" fill="#FF9933" width="96" height="96"/>
	<g>
		<defs>
			<rect id="SVGID_1_" x="87.667" y="-39.5" width="96" height="96"/>
		</defs>
		<use xlink:href="#SVGID_1_"  overflow="visible" fill="#FF9933"/>
		<clipPath id="SVGID_2_">
			<use xlink:href="#SVGID_1_"  overflow="visible"/>
		</clipPath>
	</g>
</g>
<g id="Capa_2">
	<g>
		<path fill="#FFFFFF" d="M143.985-8.073v32.559l-40-2.353V-3.75L143.985-8.073z M141.633-5.72l-35.295,4.322v21.177l35.295,2.354
			V-5.72z M117.318,13.946l10.686,0.333V3.78l-10.686,1.166V13.946z"/>
		<path fill="#FFFFFF" d="M142.427,4.656l19.563,1.619v1.786l-19.646-1.303L142.427,4.656z M167.349-0.869v19.646l-30.363,1.787
			V-4.15L167.349-0.869z M138.771,18.777l26.791-1.786V0.917l-26.791-3.281V18.777z M161.99,10.286l-19.646-0.633v2.657
			l19.646-0.127V10.286z"/>
		<path fill="#FFFFFF" d="M140.417,29.588v1.372h5.775c-0.95,4.258-4.775,7.378-9.207,7.378c-4.202,0-7.934-2.828-9.073-6.879
			l-1.323,0.373c1.308,4.638,5.583,7.877,10.397,7.877c4.748,0,8.887-3.13,10.294-7.523v5.638h1.373v-8.235H140.417z"/>
		<path fill="#FFFFFF" d="M133.554-12.587h-8.235v-8.235h1.373v5.641c1.39-4.383,5.539-7.527,10.294-7.527
			c4.812,0,9.088,3.238,10.396,7.876l-1.322,0.373c-1.142-4.049-4.873-6.878-9.074-6.878c-4.428,0.001-8.258,3.124-9.207,7.379
			h5.775V-12.587z"/>
	</g>
</g>
</svg>
