<?xml version="1.0" encoding="utf-8"?>
<!-- Generator: Adobe Illustrator 20.1.0, SVG Export Plug-In . SVG Version: 6.00 Build 0)  -->
<svg version="1.1" xmlns="http://www.w3.org/2000/svg" xmlns:xlink="http://www.w3.org/1999/xlink" x="0px" y="0px"
	 viewBox="570.5 -39.5 96 96" enable-background="new 570.5 -39.5 96 96" xml:space="preserve">
<g id="Capa_1">
	<rect x="570.5" y="-39.5" fill="#FF9933" width="96" height="96"/>
</g>
<g id="Capa_2">
	<g>
		<path fill="#FFFFFF" d="M637.998,8.843l-19.155,19.155c0,0-0.588-0.587-1.307-1.306L597.162,6.318
			c-0.718-0.719-1.866-0.747-2.551-0.062l-0.483,0.483c-0.685,0.685-0.657,1.832,0.062,2.551l23.52,23.52
			c0.719,0.719,1.866,0.746,2.551,0.062l22.612-22.612c0.685-0.685,0.657-1.833-0.062-2.551l-6.252-6.252
			c-0.719-0.719-1.865-0.746-2.551-0.061l-15.42,15.421c0,0-0.588-0.587-1.307-1.306L602.626,0.855
			c-0.719-0.719-1.867-0.746-2.551-0.061l-0.484,0.483c-0.685,0.685-0.657,1.833,0.062,2.551l17.775,17.775
			c0.719,0.719,1.306,1.307,1.306,1.307l16.666-16.666L637.998,8.843z"/>
		<path fill="#FFFFFF" d="M631.335-3.768l-12.044-12.043c-0.719-0.718-1.866-0.746-2.551-0.061L605.26-4.393
			c-0.684,0.685-0.656,1.833,0.062,2.551l13.351,13.35l12.725-12.724C632.081-1.901,632.054-3.048,631.335-3.768z M617.049,2.268
			c-1.06-0.059-2.076-0.576-3.052-1.552c-0.822-0.821-1.319-1.551-1.492-2.188l1.028-1.027c0.232,0.981,0.663,1.785,1.291,2.414
			c0.628,0.628,1.303,0.965,2.026,1.011c0.723,0.045,1.363-0.211,1.924-0.771c0.555-0.555,0.792-1.185,0.71-1.889
			c-0.08-0.703-0.487-1.421-1.22-2.153c-0.246-0.247-0.735-0.689-1.465-1.323l4.248-4.247l4.301,4.301l-0.874,0.874l-3.341-3.34
			l-2.481,2.481c0.288,0.257,0.549,0.502,0.779,0.733c0.95,0.95,1.458,1.913,1.524,2.888c0.065,0.976-0.298,1.859-1.089,2.65
			C619.049,1.948,618.109,2.328,617.049,2.268z"/>
	</g>
</g>
</svg>
