<?xml version="1.0" encoding="utf-8"?>
<!-- Generator: Adobe Illustrator 20.1.0, SVG Export Plug-In . SVG Version: 6.00 Build 0)  -->
<svg version="1.1" xmlns="http://www.w3.org/2000/svg" xmlns:xlink="http://www.w3.org/1999/xlink" x="0px" y="0px"
	 viewBox="1530.333 -39.5 96 96" enable-background="new 1530.333 -39.5 96 96" xml:space="preserve">
<g id="Capa_1">
	<rect x="1530.333" y="-39.5" fill="#FF9933" width="96" height="96"/>
</g>
<g id="Capa_2">
	<g>
		<path fill="#FFFFFF" d="M1545.827-24.297V6.194h30.492v-30.492H1545.827z M1574.286,4.162h-26.426V0.096h26.426V4.162z
			 M1547.86-1.937v-20.328h26.426v20.328H1547.86z M1572.666-5.667l-1.417,1.458l-4.913-4.775l-3.159,3.407l-5.053-8.975
			l-6.913,10.113l-1.679-1.146l8.761-12.813l5.293,9.396l2.677-2.891C1566.263-11.893,1572.666-5.667,1572.666-5.667z"/>
		<path fill="#FFFFFF" d="M1580.348-24.297V6.194h30.492v-30.492H1580.348z M1608.807,4.162h-26.426V0.096h26.426V4.162z
			 M1582.38-1.937v-20.328h26.426v20.328H1582.38z M1607.186-5.667l-1.417,1.458l-4.913-4.775l-3.159,3.407l-5.054-8.975
			l-6.913,10.113l-1.679-1.146l8.761-12.813l5.293,9.396l2.677-2.891C1600.783-11.893,1607.186-5.667,1607.186-5.667z"/>
		<path fill="#FFFFFF" d="M1545.827,10.806v30.492h30.492V10.806H1545.827z M1574.286,39.265h-26.426v-4.066h26.426V39.265z
			 M1547.86,33.166V12.838h26.426v20.328H1547.86z M1572.666,29.436l-1.417,1.458l-4.913-4.775l-3.159,3.407l-5.053-8.975
			l-6.913,10.113l-1.679-1.146l8.761-12.813l5.293,9.396l2.677-2.891C1566.263,23.21,1572.666,29.436,1572.666,29.436z"/>
		<path fill="#FFFFFF" d="M1580.348,10.806v30.492h30.492V10.806H1580.348z M1608.807,39.265h-26.426v-4.066h26.426V39.265z
			 M1582.38,33.166V12.838h26.426v20.328H1582.38z M1607.186,29.436l-1.417,1.458l-4.913-4.775l-3.159,3.407l-5.054-8.975
			l-6.913,10.113l-1.679-1.146l8.761-12.813l5.293,9.396l2.677-2.891C1600.783,23.21,1607.186,29.436,1607.186,29.436z"/>
	</g>
</g>
</svg>
