<?xml version="1.0" encoding="utf-8"?>
<!-- Generator: Adobe Illustrator 20.1.0, SVG Export Plug-In . SVG Version: 6.00 Build 0)  -->
<svg version="1.1" xmlns="http://www.w3.org/2000/svg" xmlns:xlink="http://www.w3.org/1999/xlink" x="0px" y="0px"
	 viewBox="1287 -39.5 96 96" enable-background="new 1287 -39.5 96 96" xml:space="preserve">
<g id="Capa_1">
	<rect x="1287" y="-39.5" fill="#FF9933" width="96" height="96"/>
</g>
<g id="Capa_2">
	<path fill="#FFFFFF" d="M1307.697-24.423v21.567h54.605v-21.567H1307.697z M1360.457-4.702h-50.917v-17.877h50.917V-4.702z"/>
	<path fill="#FFFFFF" d="M1307.697-1.346v21.567h54.605V-1.346H1307.697z M1360.457,18.377h-50.917V0.499h50.917V18.377z"/>
	<path fill="#FFFFFF" d="M1307.697,21.934v21.567h54.605V21.934H1307.697z M1360.457,41.656h-50.917V23.777h50.917V41.656z"/>
	<g>
		<polygon fill="#FFFFFF" points="1339.653,-14.57 1338.946,-15.277 1335.673,-12.003 1335.673,-19.098 1334.673,-19.098 
			1334.673,-12.003 1331.054,-15.623 1330.347,-14.916 1335.173,-10.089 		"/>
		<rect x="1330.7" y="-9.181" fill="#FFFFFF" width="8.6" height="1"/>
	</g>
	<g>
		<polygon fill="#FFFFFF" points="1339.653,8.507 1338.946,7.8 1335.673,11.074 1335.673,3.98 1334.673,3.98 1334.673,11.074 
			1331.054,7.454 1330.347,8.161 1335.173,12.988 		"/>
		<rect x="1330.7" y="13.897" fill="#FFFFFF" width="8.6" height="1"/>
	</g>
	<g>
		<polygon fill="#FFFFFF" points="1339.653,31.787 1338.946,31.08 1335.673,34.354 1335.673,27.259 1334.673,27.259 
			1334.673,34.354 1331.054,30.732 1330.347,31.44 1335.173,36.268 		"/>
		<rect x="1330.7" y="37.176" fill="#FFFFFF" width="8.6" height="1"/>
	</g>
</g>
</svg>
