<?xml version="1.0" encoding="utf-8"?>
<!-- Generator: Adobe Illustrator 20.1.0, SVG Export Plug-In . SVG Version: 6.00 Build 0)  -->
<svg version="1.1" xmlns="http://www.w3.org/2000/svg" xmlns:xlink="http://www.w3.org/1999/xlink" x="0px" y="0px"
	 viewBox="1046.666 -39.5 96 96" enable-background="new 1046.666 -39.5 96 96" xml:space="preserve">
<g id="Capa_1">
	<rect x="1046.666" y="-39.5" fill="#FF9933" width="96" height="96"/>
	<path fill="#FFFFFF" d="M1112.396-7.703c-0.115-0.021-2.893-0.535-6.53-0.535c-4.614,0-8.389,0.8-11.23,2.384
		c-3.327-1.678-7.151-2.525-11.386-2.525c-3.683,0-6.28,0.664-6.388,0.691l-0.821,0.214l0.002,30.471l1.367-0.353
		c0.026-0.005,2.455-0.621,5.84-0.621c3.169,0,6.07,0.526,8.677,1.541v1.814h5.479v-1.874c2.808-1.07,6.019-1.34,8.456-1.34
		c3.424,0,6.108,0.492,6.133,0.496l1.297,0.242V-7.536L1112.396-7.703z M1078.232,20.243V-5.738
		c0.988-0.184,2.799-0.449,5.018-0.449c3.858,0,7.316,0.79,10.32,2.29v25.802c-3.072-1.353-6.522-2.072-10.32-2.072
		C1081.125,19.832,1079.366,20.055,1078.232,20.243z M1111.1,20.312c-1.175-0.151-3.051-0.336-5.238-0.336
		c-4.049,0-7.408,0.653-10.1,1.873V-3.947c3.115-1.71,7.168-2.099,10.1-2.099c2.243,0,4.169,0.212,5.238,0.359V20.312z"/>
</g>
<g id="Capa_2">
</g>
</svg>
