<?xml version="1.0" encoding="utf-8"?>
<!-- Generator: Adobe Illustrator 20.1.0, SVG Export Plug-In . SVG Version: 6.00 Build 0)  -->
<svg version="1.1" xmlns="http://www.w3.org/2000/svg" xmlns:xlink="http://www.w3.org/1999/xlink" x="0px" y="0px"
	 viewBox="1171 -39.5 96 96" enable-background="new 1171 -39.5 96 96" xml:space="preserve">
<g id="Capa_1">
	<rect x="1171" y="-39.5" fill="#FF9933" width="96" height="96"/>
</g>
<g id="Capa_2">
	<path fill="#FFFFFF" d="M1189.488-4.583v26.167h59.023V-4.583H1189.488z M1246.272,19.345h-54.548v-21.69h54.548V19.345z"/>
	<g>
		<path fill="#FFFFFF" d="M1202.598,11.488V4.219h2.071c0.662,0,1.161,0.162,1.495,0.484c0.335,0.323,0.502,0.807,0.502,1.453
			c0,0.339-0.085,0.639-0.255,0.899c-0.169,0.259-0.399,0.461-0.688,0.604c0.333,0.1,0.597,0.304,0.791,0.614
			c0.195,0.31,0.292,0.683,0.292,1.119c0,0.652-0.179,1.165-0.536,1.538c-0.358,0.372-0.868,0.559-1.53,0.559H1202.598z
			 M1203.511,7.32h1.174c0.315,0,0.571-0.107,0.766-0.32c0.195-0.213,0.292-0.497,0.292-0.851c0-0.4-0.088-0.691-0.265-0.873
			c-0.176-0.182-0.445-0.273-0.809-0.273h-1.158V7.32z M1203.511,8.088v2.617h1.248c0.347,0,0.621-0.115,0.824-0.343
			s0.305-0.548,0.305-0.961c0-0.875-0.37-1.313-1.108-1.313H1203.511z"/>
		<path fill="#FFFFFF" d="M1212.507,4.219v5.167c-0.007,0.689-0.206,1.229-0.599,1.617c-0.394,0.39-0.94,0.584-1.643,0.584
			c-0.72,0-1.269-0.19-1.647-0.571c-0.38-0.382-0.573-0.925-0.579-1.63V4.219h0.908v5.128c0,0.488,0.104,0.853,0.312,1.096
			c0.208,0.24,0.543,0.361,1.006,0.361c0.466,0,0.803-0.121,1.011-0.361c0.208-0.242,0.312-0.608,0.312-1.096V4.219H1212.507z"/>
		<path fill="#FFFFFF" d="M1218.163,5.003h-1.912v6.485h-0.913V5.003h-1.907V4.219h4.732V5.003z"/>
		<path fill="#FFFFFF" d="M1223.565,5.003h-1.912v6.485h-0.913V5.003h-1.907V4.219h4.732V5.003z"/>
		<path fill="#FFFFFF" d="M1229.228,8.493c0,0.992-0.212,1.755-0.634,2.292c-0.423,0.536-1.023,0.804-1.803,0.804
			c-0.749,0-1.34-0.26-1.774-0.781c-0.435-0.521-0.66-1.257-0.677-2.209V7.23c0-0.972,0.215-1.733,0.645-2.284
			c0.429-0.551,1.028-0.826,1.797-0.826c0.766,0,1.362,0.264,1.79,0.791c0.428,0.528,0.646,1.281,0.656,2.259V8.493z M1228.313,7.22
			c0-0.769-0.125-1.34-0.377-1.715c-0.251-0.375-0.636-0.562-1.155-0.562c-0.503,0-0.883,0.189-1.141,0.569
			s-0.389,0.938-0.393,1.678v1.303c0,0.742,0.13,1.308,0.388,1.698c0.258,0.39,0.643,0.584,1.155,0.584s0.892-0.18,1.139-0.539
			c0.246-0.36,0.374-0.911,0.384-1.653V7.22z"/>
		<path fill="#FFFFFF" d="M1235.388,11.488h-0.918l-2.911-5.602v5.602h-0.918V4.219h0.918l2.921,5.626V4.219h0.908V11.488z"/>
	</g>
</g>
</svg>
