<?xml version="1.0" encoding="utf-8"?>
<!-- Generator: Adobe Illustrator 20.1.0, SVG Export Plug-In . SVG Version: 6.00 Build 0)  -->
<svg version="1.1" xmlns="http://www.w3.org/2000/svg" xmlns:xlink="http://www.w3.org/1999/xlink" x="0px" y="0px"
	 viewBox="208.334 -39.5 96 96" enable-background="new 208.334 -39.5 96 96" xml:space="preserve">
<g id="Capa_1">
	<rect x="208.334" y="-39.5" fill="#FF9933" width="96" height="96"/>
</g>
<g id="Capa_2">
	<path fill="#FFFFFF" d="M240.667-7.167h9.216v9.216h-9.216V-7.167z M251.726,2.049h9.216v-9.216h-9.216V2.049z M262.785-7.167
		v9.216h9.216v-9.216H262.785z M240.667,13.108h9.216V3.892h-9.216V13.108z M251.726,13.108h9.216V3.892h-9.216V13.108z
		 M262.785,13.108h9.216V3.892h-9.216V13.108z M240.667,24.167h9.216v-9.216h-9.216V24.167z M251.726,24.167h9.216v-9.216h-9.216
		V24.167z M262.785,24.167h9.216v-9.216h-9.216V24.167z"/>
</g>
</svg>
